<?xml version="1.0" encoding="utf-8"?>
<!-- Generator: Adobe Illustrator 21.1.0, SVG Export Plug-In . SVG Version: 6.00 Build 0)  -->
<svg version="1.1" id="Calque_1" xmlns="http://www.w3.org/2000/svg" xmlns:xlink="http://www.w3.org/1999/xlink" x="0px" y="0px"
	 viewBox="0 0 432 432" style="enable-background:new 0 0 432 432;" xml:space="preserve">
<style type="text/css">
	.st0{fill:#020203;}
	.st1{fill:#1B1B1B;}
	.st2{fill:#7D384D;}
	.st3{fill:#613D54;}
	.st4{fill:#887380;}
	.st5{fill:#343434;}
	.st6{fill:#60637C;}
	.st7{fill:#66454E;}
	.st8{fill:#C96F89;}
	.st9{fill:#A0AE8C;}
	.st10{fill:#A38AA1;}
	.st11{fill:#C1292E;}
	.st12{fill:#544842;}
	.st13{fill:#9F7E6E;}
	.st14{fill:#2DABE3;}
	.st15{fill:#F39323;}
	.st16{fill:#A0B478;}
	.st17{fill:#5B9BB6;}
	.st18{fill:#E2973F;}
	.st19{fill:#2A5943;}
	.st20{fill:#C25A4B;}
	.st21{fill:#BA9BC9;}
	.st22{fill:#8C4044;}
	.st23{fill:#A73338;}
	.st24{fill:#746458;}
	.st25{fill:#B3D0AC;}
	.st26{fill:#D6A78B;}
	.st27{fill:#B34B59;}
	.st28{fill:#72AA9F;}
	.st29{fill:#CD5962;}
	.st30{fill:#AB4371;}
	.st31{fill:#CDCCCC;}
	.st32{fill:#6BC4CD;}
	.st33{fill:#F9B03D;}
	.st34{fill:#CE7C44;}
	.st35{fill:#5B822D;}
	.st36{fill:#83BED6;}
	.st37{fill:#764657;}
	.st38{fill:#A66C83;}
	.st39{fill:#425F71;}
	.st40{fill:#CF8755;}
	.st41{fill:#648FA5;}
	.st42{fill:#BE9F8A;}
	.st43{fill:#94BECF;}
	.st44{fill:#D69B54;}
	.st45{fill:#A66868;}
	.st46{fill:#CF7F84;}
	.st47{fill:#B4B4B4;}
	.st48{fill:#C1944E;}
	.st49{fill:#A67D52;}
	.st50{fill:#CE7A93;}
	.st51{fill:#609E67;}
	.st52{fill:#C69C6C;}
	.st53{fill:#E3C64C;}
	.st54{fill:#EA5054;}
	.st55{fill:#F28F3F;}
	.st56{fill:#7C96CD;}
	.st57{fill:#D87D7E;}
	.st58{fill:#86C8AC;}
	.st59{fill:#8CB295;}
	.st60{fill:#676767;}
	.st61{fill:#E94960;}
	.st62{fill:#754D24;}
	.st63{fill:#88C0C8;}
</style>
<g>
	<path class="st24" d="M364.1,209.1c-0.8-0.7-1.7-1.4-2.5-2.2c-2.4-2.1-4.7-4.1-7.1-6.2c-0.2-0.2-0.4-0.4-0.7-0.8
		c1.1,0.2,1.9,0.3,2.8,0.4c0.5,0,1,0,1.5-0.1c0.8-0.2,1.1-0.8,0.7-1.6c-0.2-0.5-0.6-1-0.9-1.4c-1.7-2.2-3.3-4.5-4.5-7
		c-1.7-3.4-3.4-6.8-5-10.2c-0.4-0.8-0.8-1.7-1.1-2.5c-0.3-0.8-0.6-1.6-0.8-2.5c-0.2-0.7,0-0.9,0.6-1.1c0.5-0.2,1-0.4,1.5-0.7
		c0.3-0.1,0.6-0.3,0.8-0.4c0.8-0.6,0.9-1.3,0.1-2c-0.4-0.3-0.8-0.6-1.3-0.8c-1-0.5-1.9-0.9-2.9-1.4c-5.9-2.5-11.4-5.8-16.5-9.8
		c-6.7-5.3-12.9-11.2-18.7-17.5c-1.2-1.3-2.3-2.6-3.4-4c-0.3-0.4-0.6-0.9-0.9-1.4c-0.2-0.3-0.2-0.6,0.2-0.9c0.3-0.2,0.6-0.5,0.8-0.8
		c0.9-0.9,1-1.8,0.2-2.8c-0.4-0.6-0.8-1.1-1.3-1.6c-4-4.6-7.2-9.7-9.9-15.2c-0.7-1.5-1.5-3-2.3-4.4c-4.3-8-10.8-13.8-19.3-17.1
		c-1.9-0.7-3.8-1.5-5.7-2.2c-1.7-0.6-3.1-1.7-4-3.4c-1.3-2.4-3.3-4.3-5.6-5.8c-1.7-1.1-3.5-2-5.5-2.6c-2.8-0.9-5.8-1.4-8.8-1.8
		c-2.8-0.4-5.6-1-8.4-1.5c-1-0.2-1.6-0.6-1.6-1.8c0-1.1-0.7-1.6-1.8-1.5c-0.5,0.1-1,0.1-1.6,0.2c-4.3,0.7-8.7,1.1-13.1,1.1
		c-2.5,0-5.1,0-7.6,0.1c-3,0-6,0.1-9,0.6c-2.6,0.4-5.2,0.9-7.8,1.4c-0.7,0.1-1.3,0.2-2,0.3c-0.2-1.6-0.5-1.8-2-1.6
		c-2,0.4-4,0.7-6,1.1c-4.8,1-9.6,1.9-14.3,3.4c-0.1,0-0.3,0-0.5,0c0-0.5-0.1-0.9-0.1-1.3c-0.1-0.4-0.2-0.8-0.6-0.9
		c-0.4-0.1-0.7,0.1-1,0.4c-0.1,0.1-0.1,0.1-0.2,0.2c-1.4,1.6-2.7,3.2-4,4.8c-1.2,1.4-2,3-2.7,4.7c-0.4,1.1-0.8,2.2-1.3,3.2
		c-1.1,2.2-2.6,3.8-5.1,4.6c-3.1,0.9-6.2,1.3-9.3,0.9c-2.7-0.3-5.4-0.8-8.1-1.3c-5.1-0.9-10.1-2-15.2-2.8c-4.8-0.7-9.6-1.1-14.4-1.7
		c-2.7-0.3-5.5-0.6-8.2-1.2c-2.6-0.5-5-1.4-7.6-2.1c-3.4-0.9-6.8-1.7-10.4-1.6c-3.8,0.1-6.8,1.8-9,4.8c-0.8,1.1-1.5,2.4-2.1,3.7
		c-1.6,3.6-2.6,7.4-2.9,11.3c-0.2,3.1,0.3,6.1,1.8,8.8c0.5,0.9,1,1.7,1.4,2.6c0.6,1.2,1,2.4,0.8,3.7c-0.1,1-0.2,2-0.4,3
		c-0.7,3.4-1.4,6.8-2,10.2c-0.6,3-0.6,6.1-0.1,9.1c0.5,3,1.4,5.8,2.7,8.5c2.8,6,6.1,11.8,9.7,17.4c0.7,1.1,1.6,2.2,2.4,3.3
		c2.7,3.5,6.2,6.1,10.3,7.7c2.3,0.9,4.7,1.7,7,2.5c5.2,1.7,9.6,4.7,12.9,9.1c1.2,1.5,2.4,3.1,3.6,4.6c3,3.8,6.2,7.2,10.1,10.1
		c0.3,0.3,0.7,0.5,1.1,0.7c0.8,0.4,1.5,0.2,1.6-0.8c0.1-0.8,0.1-1.5,0.1-2.3c0-0.3,0-0.6,0-1c0.1,0,0.1-0.1,0.2-0.1
		c0.7,0.6,1.5,1.3,2.2,1.9c2.4,2.2,4.9,4.4,7.6,6.3c0.3,0.2,0.6,0.4,0.9,0.6c0.6,0.3,1.2,0,1.3-0.7c0-0.3,0-0.6,0-0.8
		c-0.1-0.7-0.3-1.3-0.4-2c-0.3-1.3-0.5-2.6-0.9-4c0.3,0.2,0.4,0.3,0.6,0.5c1.7,1.6,3.4,3.2,5.2,4.7c3.3,2.7,6.2,5.8,8.9,9.1
		c1.8,2.2,3.3,4.6,4.3,7.3c0.7,1.8,1.4,3.6,2,5.4c0.8,2.4,1.4,4.9,2.1,7.3c0.2,0.5,0.3,1.2,1,1.2c0.6,0.1,1-0.5,1.3-0.9
		c0.2-0.3,0.4-0.6,0.5-0.9c0.3-0.9,0.6-1.7,0.9-2.6c0.1-0.3,0.2-0.6,0.3-1.1c0.2,0.3,0.3,0.4,0.3,0.6c0.2,1,0.5,2.1,0.7,3.2
		c0.6,4.4,0.4,8.8-0.1,13.2c-0.4,3.7-0.8,7.5-1.1,11.2c-0.2,2.6-0.1,5.2,0.3,7.8c0.1,0.8,0.4,1.6,0.7,2.3c0.3,0.7,1,0.7,1.5,0.1
		c0.2-0.3,0.4-0.6,0.6-0.9c0.4-0.6,0.7-1.2,1.3-1.8c0.4,1.4,0.7,2.7,1,3.9c1.3,5.4,3.2,10.5,6.4,15.2c1.8,2.6,3.7,5.1,5.5,7.6
		c0.1,0.1,0.2,0.2,0.3,0.4c0.6,0.6,1.2,0.4,1.4-0.4c0.1-0.5,0.1-1,0.2-1.5c0.1-0.9,0.3-1.7,0.4-2.8c0.5,0.5,0.8,0.9,1.1,1.2
		c2.6,3.1,5.5,5.9,8.6,8.5c0.2,0.1,0.3,0.3,0.5,0.4c0.7,0.5,1.3,0.3,1.6-0.5c0.1-0.3,0.2-0.7,0.2-1.1c0.2-1.5,0.4-3,0.6-4.5
		c0-0.2,0.1-0.4,0.2-0.7c0.2,0.2,0.4,0.4,0.5,0.5c0.5,0.4,0.9,0.8,1.4,1.1c0.9,0.5,1.5,0.4,2.3-0.2c0.3-0.3,0.6-0.6,0.8-0.9
		c0.5-0.5,0.9-1.1,1.4-1.6c1-1,1.8-1.1,2.8,0c0.7,0.7,1.2,1.5,1.7,2.3c0.8,1.3,1.4,2.6,2.1,3.9c0.4,0.7,0.8,1.4,1.3,2.1
		c0.8,1.1,2,1.3,2.7-0.3c0.5-1.3,1.1-2.5,1.7-3.7c0.2-0.3,0.4-0.7,0.7-1.2c0.2,0.3,0.3,0.5,0.4,0.6c2,2.2,4,4.5,6,6.7
		c-1.4,3.6-2.7,7.3-3.9,11.1c-0.3,0.8-0.5,1.7-0.7,2.5c-4.8,1-4.9,1-7.7,4.1c-0.6-0.1-1.1-0.2-1.6-0.2c-3.2-0.2-5.9,0.9-8,3.4
		c-2.2,2.6-3,5.7-3,9.1c0.1,2.8,0.7,5.5,1.8,8.1c1.3,3.3,3.2,6.3,5.3,9.2c1.5,2.1,3.1,4.1,4.9,6c1.4,1.5,3.1,2.1,5.2,1.9
		c1.8-0.2,3.4-0.8,5-1.5c6.8-3.3,12-8.2,15.9-14.7c1.5-2.6,2.4-5.4,2.5-8.5c0.1-5.2-3.6-9.7-9.7-9.7c-0.2,0-0.4,0-0.6,0
		c-0.5-1.3-1.2-2.5-2.1-3.5c-0.9-1-1.9-1.9-3.1-2.5c0.1-0.5,0.2-0.9,0.4-1.3c1-3.1,2-6.3,3.2-9.4c0.2,0.2,0.3,0.3,0.5,0.5
		c0.7,0.7,1.6,1.3,2.5,1.7c1.1,0.6,2.3,0.5,3.4-0.1c0.6-0.4,1.2-0.8,1.8-1.2c5.6-4.2,11.1-8.4,16.7-12.5c7.9-5.8,15.7-11.9,24.2-17
		c4.2-2.5,8.3-5.3,12.6-7.7c11.3-6.2,22.6-12.2,34.3-17.8c3.1-1.5,6.1-3.1,9-4.9c0.7-0.4,1.3-0.9,1.9-1.4c0.8-0.7,1.1-1.6,0.9-2.6
		c-0.7-2.8-1.1-5.6-2.1-8.3c-0.1-0.2-0.1-0.3-0.1-0.5c0.6-0.3,1.2-0.6,1.7-0.9c0.9-0.6,1-1.4,0.4-2.3c-0.2-0.3-0.5-0.6-0.7-0.9
		c-0.4-0.6-0.9-1.2-1.3-1.8c-0.7-1.2-0.5-1.7,0.9-1.9c1.9-0.3,3.8-0.5,5.8-0.7c3.3-0.4,6.6-1,9.8-2.1c2.4-0.8,4.8-1.7,7-3
		c1.8-1,1.9-2.1,0.7-3.7c-0.6-0.8-1.3-1.5-1.9-2.3c-1-1.2-1.8-2.5-2.4-3.9c-0.2-0.5-0.4-1-0.2-1.6c0.3,0,0.5,0,0.8,0.1
		c1,0.2,2.1,0.4,3.1,0.6c1.3,0.2,2.6,0.5,3.9,0.2c0.7-0.2,1.5-0.3,1.7-1.2C365.2,210.1,364.6,209.6,364.1,209.1z M111.6,149.8
		c-2.1,5.1-5.8,8.7-10.9,10.6c-2.8,1.1-5.6,2-8.5,2.4c-0.9,0.1-1.8,0.2-2.8,0.2c-1.7,0-2.3-0.6-2.9-2.2c-0.6-2-0.8-4-1-6
		c-0.5-4-1-8-1.4-12c-0.3-2.9-0.5-5.8-0.8-8.7c-0.3-3.8-0.7-7.5-1.1-11.3c-0.2-2.1-0.4-4.1-0.6-6.2c-0.2-2.4-0.5-4.8-0.7-7.2
		c-0.1-0.7,0-1.4,0.1-2c0.2-1.6,1.1-2.6,2.7-2.8c7.5-1.2,14,0.9,19.5,6.1c3.2,3,5.3,6.8,7,10.9c1.7,4.2,3,8.5,3.5,13.1
		c0.1,1.1,0.2,2.2,0.2,3.2C113.7,142.1,113.2,146.1,111.6,149.8z M259.4,105.2c0.1-0.5,0.2-0.9,0.3-1.3c0.4-1.2,1.3-2.1,2.6-2.4
		c1.9-0.4,3.9-0.7,5.8-1c0.4-0.1,0.9,0,1.3,0.2c0.6,0.3,0.7,0.9,0.2,1.3c-0.3,0.3-0.7,0.4-1,0.6c-0.8,0.3-1.5,0.5-2.3,0.7
		c-0.5,0.2-1,0.3-1.4,0.5c0,2.9,0,5.7,0,8.5c0.9,0,1.8,0,2.6,0c0.6,0,1.2,0,1.8,0c0.3,0,0.6,0.1,0.9,0.2c0.6,0.2,0.7,0.8,0.2,1.2
		c-0.3,0.2-0.7,0.5-1,0.5c-1.1,0.1-2.1,0.1-3.2,0.2c-0.3,0-0.7,0-1.1,0c0.1,1,0.2,1.9,0.3,2.8c0,0.2,0.4,0.5,0.7,0.5
		c1,0.2,2.1,0.4,3.1,0.5c0.5,0.1,1.1,0.1,1.6,0.3c0.3,0.1,0.7,0.4,0.8,0.7c0.2,0.4-0.2,0.8-0.5,1c-0.3,0.1-0.6,0.3-0.9,0.3
		c-2.5,0.4-4.9,0.2-7.3-0.3c-1.4-0.3-2.4-1.2-2.8-2.5c-0.3-0.8-0.6-1.7-0.7-2.6C259,111.8,259,108.5,259.4,105.2z M259,142.1
		c0.7,0.1,1.2-0.5,1.5-1c0.5-0.8,1-1.7,1.3-2.5c0.7-1.7,1.3-3.4,1.9-5.1c0.3-1,0.9-1.7,2-1.9c1.1-0.2,2.1,0.2,2.7,1.2
		c0.4,0.6,0.7,1.3,0.9,2c0.9,2.8,1.1,5.7,0.6,8.6c-0.7,4.2-3.3,6.7-7.3,7.8c-1.7,0.4-3.3,0.5-5,0c-0.4-0.1-0.8-0.3-1.1-0.5
		c-0.5-0.3-0.5-0.9-0.1-1.2c0.3-0.2,0.7-0.4,1.1-0.5c0.4-0.1,0.9,0,1.3,0.1c1.6,0.4,2.9-0.1,4.2-0.9c1.1-0.7,1.7-1.7,1.8-3
		c0.1-1,0.2-2.1,0.2-3.1c0-1.4-0.1-2.8-0.1-4.1c-0.1,0-0.1,0-0.2,0c-0.1,0.3-0.2,0.6-0.4,0.9c-0.4,1-0.7,2-1.2,3
		c-2.1,4.2-7.3,4.1-9.7,0.7c-1.5-2.2-2-4.6-1.6-7.2c0.2-1.6,1.6-2.5,3.2-2.2c0.9,0.2,1.5,0.7,1.8,1.6c0.3,1.1,0.5,2.3,0.8,3.4
		c0.2,0.9,0.4,1.9,0.6,2.8C258.1,141.2,258.3,141.9,259,142.1z M241.8,102.8c0.2-1.1,0.9-1.9,2-2.1c1.2-0.2,2.2,0.2,2.7,1.2
		c0.4,0.7,0.5,1.6,0.8,2.4c0,0.1,0.1,0.3,0.1,0.6c0.2-0.3,0.3-0.6,0.5-0.8c0.4-0.6,0.7-1.2,1.2-1.7c0.6-0.6,1.2-1.1,1.9-1.4
		c2.8-1.2,5.6,0.4,6.1,3.4c0.3,1.6-0.2,3.1-1.1,4.4c-1,1.4-2.4,2.4-4,3.2c-0.4,0.2-0.7,0.3-1.3,0.6c0.5,0.2,0.7,0.3,1,0.4
		c2.4,1.1,4.1,2.7,5.3,5c0.6,1.1,0.2,1.6-0.3,1.9c-0.7,0.5-1.5,0.4-2.1-0.3c-0.4-0.4-0.7-0.9-1-1.3c-1.1-1.7-2.7-2.8-4.6-3.5
		c-0.1,0-0.2,0-0.5,0c0,0.8,0,1.5,0,2.2c0,0.5,0,1,0,1.5c-0.1,1.1-0.6,1.8-1.7,2.1c-1.1,0.3-2.2,0.1-2.8-0.8c-0.4-0.8-0.8-1.6-1-2.5
		c-0.4-2.3-0.8-4.7-1.1-7c-0.2-2-0.3-4-0.4-6C241.7,103.8,241.7,103.3,241.8,102.8z M223.1,117.2c0.1-1.5,0.3-2.9,0.5-4.4
		c0.3-2,0.7-4.1,1.1-6.1c0.3-1.4,0.8-2.7,1.7-3.9c1.2-1.7,2.9-2.4,5-2.1c1,0.1,1.8,0.7,2.6,1.4c0.9,0.9,1.5,2,2,3.2
		c1,2.3,1.7,4.7,2.3,7.1c0.4,1.6,0.8,3.2,1.2,4.8c0.3,1.2-0.1,2.3-1.1,3c-1.1,0.7-2.5,0.7-3.4-0.1c-0.4-0.3-0.6-0.8-0.8-1.3
		c-0.3-0.8-0.4-1.6-0.7-2.4c-2.4,0.1-4.8,0.1-7.2,0.2c-0.1,0.6-0.2,1.1-0.3,1.7c-0.1,0.4-0.1,0.7-0.2,1.1c-0.2,0.7-0.8,1.1-1.5,1.1
		c-0.6,0-1-0.2-1.1-0.9C223,118.7,223,117.9,223.1,117.2z M223.1,133.9c0.4-1.9,2.9-2.3,4.1-1.5c0.6,0.4,0.9,1,1,1.7
		c0.2,1.6,0.4,3.1,0.5,4.7c0,0.2,0,0.4,0.1,0.8c0.2-0.3,0.3-0.5,0.3-0.7c0.5-1.3,1.1-2.5,1.9-3.6c0.6-0.8,1.2-1.4,2.1-1.8
		c1.5-0.7,3.1-0.5,4.4,0.7c0.8,0.7,1.3,1.6,1.6,2.6c0.2,0.6,0.4,1.2,0.7,2c0.3-0.7,0.5-1.2,0.7-1.7c0.4-1.1,1-2.1,1.9-3
		c0.7-0.7,1.5-1.2,2.5-1.4c1.6-0.3,3,0.2,4,1.5c0.7,1,1,2.1,1.3,3.2c0.6,2.3,0.9,4.7,1.1,7.1c0.1,1,0.2,2,0.2,2.9c0,0.6,0,1.2,0,1.7
		c-0.1,1.2-1.2,2-2.4,2c-0.6,0-1.2-0.3-1.4-0.9c-0.3-0.6-0.5-1.3-0.6-1.9c-0.4-2.7-0.7-5.4-1.1-8.1c-0.2-1.1-0.4-2.2-0.6-3.4
		c-0.1-0.5-0.3-0.9-0.5-1.5c-0.6,0.3-0.9,0.8-1.2,1.2c-0.8,1.1-1.2,2.4-1.4,3.7c-0.2,1.7-0.4,3.4-0.5,5c-0.1,0.9-0.1,1.9-0.2,2.9
		c-0.1,1.1-0.8,1.7-1.8,2c-1,0.3-1.9,0-2.6-0.8c-0.6-0.7-1-1.6-1.2-2.5c-0.4-1.8-0.7-3.7-1.1-5.5c-0.3-1.4-0.5-2.8-0.8-4.2
		c-0.1-0.3-0.2-0.6-0.3-1c-0.5,0.1-0.6,0.5-0.8,0.7c-0.9,1.3-1.4,2.8-1.6,4.4c-0.3,2.1-0.5,4.2-0.7,6.2c0,0.3,0,0.6-0.1,0.8
		c-0.1,1.1-0.6,1.8-1.7,2.1c-1,0.3-2,0.1-2.7-0.7c-1.2-1.4-1.9-3-2.2-4.8c-0.6-2.9-1-5.8-0.9-8.8C222.8,135.5,223,134.7,223.1,133.9
		z M185.8,94.9c0.4-1.1,0.9-2.2,1.5-3.1c2.8-4.4,7.5-5.3,11.1-4.5c0.7,0.2,1.4,0.3,2.1,0.5c1.3,0.4,2.4,1,3.2,2.1
		c1,1.2,1.9,2.4,2.8,3.7c0.7,1,1,2.2,1.2,3.5c0.1,0.8-0.2,1.5-0.9,2c-0.8,0.5-1.6,0.6-2.5,0.2c-0.3-0.2-0.5-0.5-0.7-0.8
		c-0.8-1.3-1.5-2.6-2.4-3.8c-0.5-0.7-1.1-1.3-1.7-1.8c-1-0.8-1.7-0.6-2.5,0.4c-0.8,1-1.1,2.2-1.3,3.4c-0.2,1-0.2,2-0.3,2.9
		c0,1.7,0.4,3.2,0.9,4.8c1.3,4.2,3.4,8.1,6,11.7c1.6,2.4,3.3,4.7,5,7.1c1.9,2.7,3.7,5.5,5,8.6c1.4,3.3,2.4,6.7,2.6,10.3
		c0.3,3.5-0.1,6.9-2.2,9.8c-2.3,3.3-5.5,5.4-9.5,6.1c-2.3,0.4-4.5,0-6.5-1.3c-2.7-1.7-4.6-4-5.7-7c-0.3-0.8-0.6-1.7-1-2.5
		c-0.6-1.6,0.8-3.3,2.5-3.5c0.7-0.1,1.3,0.2,1.7,0.8c0.4,0.6,0.8,1.2,1.1,1.8c0.8,1.7,1.7,3.3,2.8,4.8c0.7,0.9,1.5,1.7,2.6,2.2
		c1.3,0.7,2.5,0.5,3.7-0.2c1.8-1.2,2.6-2.9,2.9-4.9c0.5-2.5,0.1-4.9-0.9-7.2c-1.3-3.2-3.2-6.1-5.2-8.9c-1.2-1.7-2.5-3.3-3.8-4.9
		c-2-2.7-4-5.3-6-8c-3.1-4.3-5.2-9-6.1-14.2C184.6,101.5,184.7,98.1,185.8,94.9z M155.5,109.3c0.8-3.3,2.3-6.2,5.1-8.2
		c2-1.5,4.2-2.4,6.6-2.5c3.4-0.2,6.3,1.1,8.4,3.8c2.3,2.8,3.1,6.1,2.8,9.7c0,0.3-0.1,0.7-0.2,1c-0.2,0.5-0.5,0.8-0.9,1
		c-0.9,0.4-1.6,0-1.8-0.9c-0.2-0.9-0.3-1.9-0.5-2.8c-0.3-1.6-0.9-3.2-2-4.5c-0.5-0.7-1.2-1.3-1.8-1.8c-0.9-0.7-1.8-0.6-2.5,0.2
		c-0.6,0.7-1.1,1.5-1.5,2.4c-0.7,1.6-1.1,3.3-1.3,5c-0.6,4.3-0.8,8.7-0.5,13.1c0.4,6,1.2,11.9,3.1,17.7c0.7,2,1.5,3.9,2.5,5.6
		c0.9,1.4,1.9,2.6,3.5,3.3c1.2,0.5,1.6,0.4,2.5-0.6c0.8-0.9,1.2-1.9,1.6-3c0.7-1.9,1-4,1.2-6c0.2-1.6,0.3-3.1,0.4-4.7
		c0-0.5,0-1-0.1-1.6c0-0.5-0.3-0.8-0.8-0.9c-0.5-0.1-1-0.1-1.5-0.1c-1.2,0.1-2.5,0.2-3.7,0.2c-0.6,0-1.1,0.1-1.7,0
		c-1.1-0.2-1.5-1.1-0.9-2c0.5-0.7,1.1-1.1,2-1.3c1.5-0.3,3.1-0.7,4.6-0.9c1.1-0.1,2.2-0.2,3.2,0c2.3,0.2,3.4,1.3,3.8,3.6
		c0.3,1.7,0.4,3.4,0.3,5.1c-0.1,3.7-0.8,7.4-2,10.9c-0.6,1.7-1.4,3.4-2.4,4.9c-1.8,2.6-4.2,4.4-7.4,4.7c-2.7,0.2-5.1-0.4-7.4-1.9
		c-2.1-1.3-3.7-3.1-4.9-5.3c-1.6-2.8-2.6-5.8-3.5-8.9c-1-3.2-1.5-6.5-2-9.8c-0.7-4.9-0.9-9.8-1-14.7
		C154.7,115.7,154.8,112.5,155.5,109.3z M139.5,177.9c-2,0.4-4,0.3-6-0.4c-3.2-1.1-5.7-3.1-7.6-5.8c-1.8-2.6-3-5.4-4.1-8.3
		c-1.4-3.6-2.2-7.4-2.7-11.2c-0.9-6-1.4-12-1.3-18.1c0.1-5.1,0.4-10.1,1.4-15.1c0.5-2.7,1.3-5.2,2.6-7.7c1-2,2.3-3.7,4-5.1
		c3.9-3.2,10.4-4.1,15.1,0.5c1,1,1.9,2.1,2.7,3.3c2.2,3.2,3.7,6.8,4.8,10.6c1.4,5.2,2.5,10.4,3,15.7c0.4,4,0.6,7.9,0.9,11.9
		c0.1,0.7,0,1.5,0,2.2c0,0,0.1,0,0.1,0c-0.3,3.5-0.6,6.9-1,10.4c-0.6,4.6-2.1,8.8-4.9,12.6C144.6,175.8,142.4,177.3,139.5,177.9z
		 M195.8,261.8c-1.6,1.2-3.5,1.9-5.5,2.3c-1.1,0.2-2.2,0.2-3.3-0.1c-0.1,0-0.3,0-0.5-0.1c0.1,1.3,0.1,2.5,0.2,3.7
		c0.1,1.9,0.2,3.9,0.3,5.8c0.1,2-1,3.4-2.8,4.2c-0.8,0.4-1.7,0.5-2.5,0.3c-1.2-0.3-2.1-1-2.4-2.3c-0.1-0.6-0.2-1.2-0.2-1.7
		c-0.2-3.8-0.4-7.6-0.6-11.3c-0.4-7.2-0.5-14.3-0.3-21.5c0-0.8,0.1-1.5,0.2-2.3c0.4-3,3.7-4.6,6.3-3.2c0.9,0.5,1.4,1.3,1.5,2.3
		c0.1,1,0.1,2.1,0.2,3.3c0.3-0.4,0.6-0.7,0.8-1c1.2-1.5,2.6-2.7,4.3-3.5c4-1.9,8.4-0.6,10.6,3.3c0.9,1.5,1.3,3.2,1.5,4.9
		C204.3,252.1,201.5,257.6,195.8,261.8z M214.1,283.3c-1.7-0.4-3.1-1.2-4-2.8c-0.3-0.5-0.5-1-0.6-1.5c-0.5-2.4-1-4.9-1.3-7.4
		c-0.6-4.8-1.1-9.7-1.4-14.5c-0.5-5.8-0.6-11.7-0.2-17.5c0.1-1,0.2-2,0.5-3c0.7-2.6,2.7-4.3,5.4-4.5c2.4-0.2,4.7,0.1,7.1,0.6
		c0.4,0.1,0.8,0.3,1.1,0.5c0.7,0.5,0.8,1.2,0,1.7c-0.3,0.2-0.8,0.4-1.2,0.5c-1,0.2-1.9,0.3-2.9,0.5c-1.6,0.3-1.5,0.1-1.8,1.7
		c-0.1,0.9-0.2,1.8-0.3,2.8c-0.2,5.9-0.1,11.8,0.4,17.6c0.3,3.3,0.6,6.6,0.9,9.9c0,0.2,0.1,0.4,0.1,0.7c1.1-0.1,2.1-0.2,3.1-0.3
		c1-0.1,1.9-0.1,2.9-0.1c0.5,0,0.9,0.2,1,0.6c0.2,0.4,0,0.9-0.3,1.2c-0.4,0.5-1,0.8-1.7,0.9c-1.3,0.2-2.5,0.4-3.8,0.6
		c-0.3,0-0.5,0.1-0.9,0.1c0,0.2,0,0.5,0,0.7c0.2,1.8,0.6,3.6,1.2,5.3c0.2,0.7,0.7,1.1,1.4,1.4c1.3,0.4,2.6,0.4,3.9,0.2
		c1-0.1,2-0.3,3-0.4c0.7-0.1,1.4,0,1.7,0.8c0.2,0.5,0,1.3-0.7,1.8c-0.6,0.5-1.3,0.9-2.1,1.1C221.2,283.9,217.7,284.2,214.1,283.3z
		 M226.9,326.1c-1.9,0.9-3.4,2.1-4.9,3.7c-1-2.1-2.1-4-3.8-5.5c0.5-0.8,1.3-1.3,2.5-1.5c0.5,2.1,2.8,2.8,4.4,1
		C225.9,324.4,226.4,325.2,226.9,326.1z M249,265.9c-0.5,1.9-1.2,3.8-2.2,5.5c-1.2,2-2.9,3.4-5.2,3.9c-1.4,0.3-2.8,0.1-4.2-0.3
		c-2.5-0.8-4.3-2.4-5.8-4.5c-1.6-2.3-2.5-4.8-3.2-7.4c-1.7-6.8-2.4-13.6-2-20.6c0.2-3.1,0.6-6.2,1.4-9.2c0.8-2.6,2.2-4.7,4.5-6.2
		c4-2.6,8.7-1.8,11.7,1.3c1.4,1.4,2.3,3.1,3,4.9c1.1,2.9,1.7,6,2.2,9c0.3,1.9,0.4,3.8,0.6,5.7c0.2,2.2,0.2,4.4,0.3,6.6
		C250.3,258.4,249.9,262.2,249,265.9z M275.1,249.8c-2.1,4.1-5.8,6.2-10.4,6.8c-0.4,0-0.8,0.1-1.3,0.2c0.1,2.2,0.3,4.3,0.4,6.4
		c0.2,2.8,0.4,5.6,0.6,8.5c0.2,3.2-2.9,4.9-5,4.8c-1.3-0.1-2.1-0.7-2.4-2c-0.3-1.3-0.4-2.6-0.5-3.8c-0.5-6.7-0.9-13.4-1.4-20.2
		c-0.4-5.9-0.7-11.8-1-17.7c-0.1-2,0.1-3.9,0.3-5.9c0.1-0.7,0.4-1.4,0.7-2.1c0.5-1.1,1.5-1.7,2.8-1.9c1.5-0.2,2.7,0.4,3.4,1.7
		c0.5,0.9,0.6,1.9,0.7,2.8c0,0.3,0,0.7,0.1,1.1c0.4-0.2,0.6-0.3,0.9-0.5c1.8-0.9,3.8-1.5,5.9-1.3c3.2,0.3,5.5,2,6.9,4.9
		C278.7,237.8,278.1,243.9,275.1,249.8z M297.2,262.2c-0.3,0.4-0.7,0.8-1.2,1c-2.1,1-4.4,1.7-6.7,1.8c-2.6,0.1-4.4-1.1-5.4-3.5
		c-0.6-1.6-0.9-3.3-1-5c-0.6-5.4-1.1-10.8-1.7-16.3c-0.3-3-0.7-6.1-1-9.1c0-0.4-0.1-0.8-0.1-1c-0.1-3.1,2.3-5,5.1-4.3
		c1.2,0.3,1.9,1,2.3,2.1c0.3,1,0.6,2.1,0.7,3.1c0.4,3,0.7,6,1,9c0.5,5.6,0.9,11.3,1.8,16.9c0.1,0.9,0.2,1.8,0.3,2.7
		c0.1,1,0.2,1.1,1.2,1c0.6,0,1.3-0.2,1.9-0.3c0.6-0.1,1.3-0.1,1.9-0.1C297.4,260.3,297.9,261.3,297.2,262.2z M314.6,253
		c-0.4,0.4-0.8,0.8-1.3,1c-1.5,0.5-3.1,0.9-4.6,1.3c-1,0.2-1.9,0.4-2.9,0.5c-3.3,0.3-5.4-1.1-6.6-3.6c-1-2.2-1.6-4.4-2-6.8
		c-0.7-4.8-1.3-9.7-1.4-14.6c0-1.3,0-2.6,0.2-3.9c0.4-2.7,2-5.5,5.7-6.2c1.8-0.3,3.6-0.4,5.4,0.1c0.3,0.1,0.7,0.2,0.9,0.4
		c0.9,0.5,1,1.3,0.2,1.9c-0.5,0.3-1.1,0.5-1.7,0.6c-0.5,0.1-1,0.1-1.5,0.2c-1,0.2-1.1,0.2-1.2,1.2c-0.1,2.4-0.2,4.9-0.1,7.3
		c0.1,2.6,0.4,5.2,0.7,7.7c0,0.3,0.1,0.6,0.1,0.9c0.9,0,1.7,0,2.6,0c1.1-0.1,2.3-0.2,3.4-0.3c0.5,0,1,0.1,1.4,0.2
		c0.7,0.3,0.9,0.9,0.5,1.6c-0.2,0.3-0.5,0.6-0.8,0.7c-0.7,0.3-1.4,0.5-2.2,0.6c-1.4,0.2-2.9,0.4-4.4,0.6c0.2,1.3,0.4,2.6,0.5,3.9
		c0.1,0.6,0.2,1.2,0.3,1.8c0.3,1.3,0.9,1.8,2.2,1.7c1.2-0.1,2.4-0.3,3.7-0.4c0.6-0.1,1.2-0.1,1.8-0.2c0.4,0,0.9,0.1,1.1,0.6
		C315.1,252.1,315,252.6,314.6,253z M335.9,188.1c-1,3.1-2.1,6.1-3.6,9c-0.9,1.7-2,3.2-3.4,4.6c-3.1,3-9.4,4.8-14.4,0.5
		c-1.4-1.2-2.6-2.6-3.5-4.1c-0.2-0.3-0.3-0.5-0.6-0.9c-0.1,0.4-0.2,0.7-0.3,1.1c-0.5,2.3-0.9,4.7-1.5,7c-0.3,1.3-0.9,2.6-1.5,3.9
		c-0.4,0.9-1,1.7-1.8,2.3c-1.6,1.3-3.4,1.6-5.3,0.8c-1.1-0.5-2-1.2-2.8-2.1c-1.6-1.8-2.8-3.9-3.8-6.1c-0.1-0.3-0.3-0.5-0.5-1
		c-0.1,0.4-0.2,0.6-0.3,0.9c-0.5,2.1-1.1,4.1-1.6,6.2c-0.2,0.9-0.6,1.7-0.9,2.5c-0.4,0.7-0.8,1.5-1.3,2.1c-1.6,1.9-3.9,2.4-6.1,1.2
		c-1.6-0.8-2.7-2.1-3.8-3.5c-1.9-2.6-3.1-5.6-3.9-8.8c-0.1-0.6-0.3-1.2-0.5-2c-0.2,0.4-0.3,0.6-0.4,0.8c-0.8,1.7-1.7,3.4-2.9,4.9
		c-0.7,0.9-1.5,1.6-2.5,2.2c-1.8,0.9-3.6,0.9-5.2-0.3c-2-1.3-3.1-3.3-3.7-5.5c-0.7-2.8-0.7-5.5-0.1-8.3c0.8-4.2,1.9-8.3,3.5-12.3
		c0.3-0.8,0.6-1.6,0.8-2.5c0.2-0.7,0.1-0.9-0.6-1c-0.8-0.2-1.6-0.3-2.5-0.3c-1.4-0.1-2.8-0.2-4.3-0.3c0,0.1-0.1,0.2-0.2,0.4
		c-1.1,3.6-3.1,6.4-6.8,7.9c0,0.5,0.1,0.9,0.1,1.4c0.3,3.9,0.3,7.7-0.4,11.5c-0.4,2.1-1,4.1-2,6c-0.8,1.5-2,2.7-3.7,3.3
		c-2,0.7-3.9,0.5-5.7-0.5c-2.3-1.3-4-3.1-5.2-5.4c-2.6-4.7-2.9-9.6-1.6-14.7c0.1-0.3,0.2-0.6,0.2-0.9c-1-0.1-2-0.3-3-0.4
		c-0.1,0.7-0.2,1.3-0.2,2c-0.3,3.3-0.6,6.7-1,10c-0.2,2.2-0.6,4.3-1.3,6.4c-0.3,0.9-0.7,1.8-1.3,2.5c-1.4,1.9-3.8,2.3-5.8,1
		c-0.8-0.5-1.5-1.3-2.2-2c-0.6-0.7-1.1-1.6-1.7-2.4c-0.1-0.2-0.2-0.3-0.5-0.6c-0.2,1.4-0.4,2.7-0.6,4c-0.3,1.7-0.7,3.3-1.1,4.9
		c-0.2,0.8-0.6,1.7-1.1,2.4c-1.4,2.1-3.8,2.6-6,1.3c-1.6-0.9-2.8-2.2-3.7-3.8c-1.6-2.6-2.6-5.5-3.4-8.5c-0.8-3-1.1-6-1.2-9
		c0-0.2,0-0.5,0-0.8c-0.4,0.1-0.5,0.4-0.6,0.6c-1,1.3-2.2,2.3-3.7,2.8c-2.3,0.9-4.4,0.6-6.3-0.9c-1.9-1.5-3-3.5-3.7-5.9
		c-0.2-0.7-0.3-1.4-0.5-2.3c-0.3,0.3-0.5,0.5-0.7,0.8c-1.1,1.3-2.1,2.7-3.2,3.9c-1.8,2-3.8,3.7-6.4,4.5c0,0-0.1,0.1-0.2,0.2
		c0.2,0.1,0.4,0.2,0.5,0.3c4,1.8,7.1,4.7,9.3,8.6c1.7,3,2.1,6.3,1.3,9.6c-0.7,2.8-2.5,4.9-5.4,5.7c-1.3,0.4-2.6,0.2-3.8-0.2
		c-3-1-5.4-2.8-7.4-5.2c-2.4-2.9-4-6.1-5.2-9.6c-1.5-4.3-2.5-8.7-2.8-13.2c-0.1-1.5-0.1-3-0.2-4.5c0-0.2,0-0.5,0-0.8
		c-0.2,0.1-0.3,0.1-0.5,0.1c-1.9,1-3.8,2.1-5.4,3.5c-1.5,1.3-2.5,2.8-3.3,4.6c-0.1,0.3-0.2,0.6-0.4,0.9c-0.2,0.5-0.6,0.7-1.1,0.9
		c-0.8,0.2-1.5-0.2-1.5-1c0-0.7,0-1.4,0.2-2c0.5-1.8,1.4-3.3,2.7-4.6c1.5-1.6,3.3-2.8,5.2-3.8c1.1-0.6,2.3-1.2,3.5-1.8
		c0.6-0.3,0.8-0.6,0.9-1.3c0.4-3.6,1.1-7,2.6-10.4c1-2.4,2.3-4.6,4.1-6.4c1.6-1.6,3.4-2.8,5.6-3.2c3.4-0.7,6.6,1.3,7.2,4.6
		c0.3,1.5,0,2.9-0.6,4.2c-1,2.2-2.4,4.2-4,5.9c-2.1,2.2-4.5,3.9-7.1,5.5c-0.6,0.4-0.9,0.8-0.9,1.5c0,3.3,0.1,6.6,0.5,9.9
		c1,0.4,2.1,0.5,3.2,0.4c2.5-0.2,4.6-1.2,6.4-3c1.1-1.1,2.1-2.2,3.1-3.3c1.2-1.4,2.3-2.8,3.4-4.1c0.4-0.5,0.6-1,0.7-1.6
		c0.4-2.7,1.6-5.1,3.2-7.4c3.5-5,10.6-5.8,14.9-3.1c0.4,0.3,0.7,0.3,1.2,0.1c0.5-0.2,1.2-0.2,1.7-0.2c1.1,0.1,1.8,0.8,2.1,1.8
		c0.5,1.4,0.4,2.9,0.3,4.3c-0.3,3.3-0.7,6.6-0.9,9.9c-0.2,4.6-0.3,9.1,0.1,13.7c0.2,2.5,0.7,4.9,1.7,7.2c0.4,0.8,0.9,1.6,1.4,2.4
		c0.2,0.2,0.4,0.4,0.7,0.7c0.3-0.6,0.5-1,0.7-1.5c0.5-1.9,1-3.8,1.4-5.7c0.5-2.4,0.8-4.7,1.2-7.1c0.1-0.4,0.1-0.8-0.1-1.2
		c-1.2-4-1.8-8-1.9-12.1c-0.1-2,0.1-4,0.8-5.9c0.5-1.3,1.4-2.1,2.8-2.2c1.3-0.1,2.2,0.4,2.6,1.6c0.3,0.9,0.4,1.9,0.5,2.8
		c0.5,3.9,0.8,7.8,1.3,11.7c0.4,2.9,1.1,5.7,2.1,8.4c0.3,0.8,0.7,1.6,1.1,2.4c0.1,0.3,0.3,0.5,0.6,0.9c0.3-0.7,0.5-1.3,0.7-1.8
		c0.7-2.2,1.1-4.6,1.3-6.9c0.3-3.4,0.5-6.8,0.7-10.2c0-0.4,0.1-0.8,0.1-1.2c0.2-1.8,2.1-2.5,3.6-2c0.4,0.2,0.8,0.4,1.3,0.6
		c0.4,0.1,0.8,0.2,1.2,0.3c0.8,0.2,1.4,0.1,1.7-0.7c0.2-0.5,0.7-0.9,1-1.4c-0.2-0.2-0.3-0.4-0.5-0.6c-1-1.1-1.8-2.4-2.4-3.8
		c-0.4-1-0.6-2.1-0.6-3.2c0.2-2.8,2.5-4.9,5.3-5c2.2-0.1,4.1,0.6,5.8,1.9c2.8,2.1,4.9,4.7,6.2,8c0.4,1.1,0.7,2.2,1.1,3.3
		c0.1,0.2,0.1,0.4,0.2,0.7c2.7-1.4,3.8-3.7,4.6-6.4c-0.4-0.2-0.7-0.3-1.1-0.5c-1.3-0.6-2.4-1.3-3.4-2.3c-0.8-0.8-1.4-1.8-1.7-2.9
		c-0.5-1.7-0.3-3.2,1-4.4c1.3-1.2,2.8-1.4,4.5-1c1.3,0.4,2.2,1.2,3,2.3c1.1,1.5,1.5,3.2,1.4,5.1c0,0.7-0.1,1.3-0.2,2.1
		c0.3,0.1,0.6,0.2,0.9,0.2c1.3,0,2.6,0,3.9,0.1c1.5,0.1,3,0.1,4.4,0.3c2.5,0.4,3.8,2,3.9,4.5c0.1,2.2-0.3,4.4-0.9,6.5
		c-0.9,3.6-1.8,7.3-2.4,11c-0.3,2-0.3,3.9,0.1,5.9c0.1,0.6,0.3,1.2,0.8,1.7c0.8-0.5,1.4-1.1,1.8-1.9c0.9-1.5,1.7-3,2.5-4.5
		c0.6-1.1,1.1-2.2,1.6-3.3c0.2-0.4,0.3-0.9,0.3-1.4c0.1-3.1,0.3-6.2,0.9-9.2c0.3-1.7,0.8-3.3,1.7-4.8c0.7-1.1,1.6-1.8,2.9-2
		c1.6-0.2,2.6,0.5,2.8,2c0.3,1.8,0.2,3.6,0.1,5.4c-0.4,4.4-0.6,8.8-0.5,13.3c0.1,3,0.5,5.9,1.5,8.8c0.4,1.3,1,2.5,1.8,3.6
		c1.1,1.3,1.6,1.3,2.4-0.2c0.5-1.1,1-2.3,1.3-3.4c0.9-3.1,1.7-6.3,2.5-9.5c0.1-0.4,0.1-0.8,0-1.3c-1.3-4-1.8-8.2-1.9-12.4
		c-0.1-4.1,0.2-8.3,0.5-12.4c0.2-2.6,0.4-5.2,0.6-7.8c-0.3-0.1-0.6-0.3-0.9-0.4c-2-0.7-4-1.4-6-2.1c-3.1-1-6.3-0.8-9.3,0.3
		c-0.4,0.1-0.8,0.3-1.2,0.3c-0.5,0-0.9-0.1-1.2-0.6c-0.2-0.5,0-0.9,0.4-1.1c0.4-0.4,0.9-0.7,1.4-0.9c1.8-0.8,3.6-1.3,5.6-1.4
		c2.8-0.1,5.5,0.4,8.1,1.2c1.1,0.4,2.3,0.7,3.5,1.1c0.2-0.7,0.2-1.4,0.4-2c0.3-0.8,0.5-1.7,0.9-2.5c0.6-1.1,1.6-1.8,2.9-1.9
		c1.8-0.3,3.3,0.7,3.6,2.5c0.2,1.1,0.1,2.1,0.1,3.2c0,1.1-0.1,2.3-0.2,3.5c0.6,0.1,1.1,0.3,1.6,0.4c3.1,0.7,6.1,0.8,9.1-0.1
		c2.6-0.7,4.8-2.1,6.3-4.5c0.3-0.4,0.7-0.8,1.1-1.1c0.4-0.2,0.9-0.4,1.3-0.4c1,0,1.4,0.7,1,1.6c-0.1,0.2-0.2,0.4-0.3,0.6
		c-2.9,4-6.9,6.2-11.8,6.9c-2.7,0.3-5.3,0.3-8-0.1c-0.2,0-0.4,0-0.6,0c0,0.6-0.1,1.1-0.1,1.7c-0.3,4.1-0.7,8.2-0.8,12.4
		c-0.2,5.5,0.3,11,1.2,16.4c0.4,2.2,1,4.4,2,6.4c0.5,1,1.1,1.9,1.7,2.9c0.3,0.4,0.7,0.8,1.2,1.3c0.4-0.8,0.9-1.4,1.1-2.1
		c0.7-2.1,1.3-4.2,1.9-6.4c0.7-2.7,1.3-5.4,1.9-8.2c0.1-0.4,0.1-0.8,0-1.2c-0.7-4.2-0.7-8.3,0.5-12.4c0.8-2.7,2.1-5,4.2-6.9
		c4.5-4.1,10.2-1.7,12.1,2.1c1.1,2.1,1.7,4.4,0.9,6.7c-0.4,1-0.9,1.9-1.5,2.7c-2,2.8-4.8,4.4-8.1,5.4c-0.2,0.1-0.5,0.1-0.7,0.2
		c-0.1,0-0.1,0.1-0.2,0.1c0.4,3.4,1.4,6.7,3.7,9.4c0.4,0.4,0.8,0.8,1.3,1.2c1.8,1.2,3.9,1.1,5.5-0.3c1.1-1,2-2.2,2.8-3.5
		c1.5-2.5,2.5-5.2,3.5-7.9c0.2-0.7,0.6-1.3,1-1.9c0.4-0.6,1-0.8,1.7-0.7c0.6,0.1,0.9,0.3,0.9,0.9C336,187.1,336,187.6,335.9,188.1z
		 M274.3,169.4c0.8-1.3,2-1.8,3.1-1.8c2.3,0,4,1.6,4.2,3.7c0.2,1.9-1.1,3.5-3.1,4c-1.7,0.4-3.3-0.9-4.1-2.1
		C273.7,172,273.5,170.7,274.3,169.4z"/>
	<path class="st24" d="M166.1,199.4c4.3,1.1,7.7,3.4,10.4,6.7c1.3,1.6,2.5,3.3,3,5.4c0.5,1.8,0.7,3.7,0.1,5.6
		c-0.2,0.7-0.5,1.3-0.9,1.9c-0.6,0.9-1.2,1-2.2,0.5c-0.6-0.3-1.1-0.6-1.7-1c-1.8-1.3-3.1-3.1-4.2-5.1c-1.7-3-2.8-6.2-3.6-9.5
		C166.6,202.4,166.4,201,166.1,199.4z"/>
	<path class="st24" d="M199.3,176.7c-1.2,2.8-1.4,5.7-1.8,8.6c-0.1,0.8-0.1,1.6-0.2,2.4c0,0.4-0.1,0.7-0.3,1.1
		c-0.7,1.3-1.3,2.6-2.1,3.9c-0.4,0.7-1,1.4-1.5,2c-0.3,0.3-0.7,0.6-1,0.8c-0.7,0.4-1.1,0.3-1.6-0.2c-0.7-0.7-1.1-1.5-1.4-2.4
		c-0.8-2.2-0.9-4.5-0.5-6.7c0.3-2.3,0.8-4.5,1.8-6.6c0.2-0.4,0.3-0.7,0.5-1.1c1.2-2.1,3.2-3.1,5.6-2.7
		C197.8,175.8,198.5,176.1,199.3,176.7z"/>
	<path class="st24" d="M238.8,186.5c2.4,1.1,4.8,1.5,7.3,1.3c0.1,0.8,0.2,1.5,0.3,2.2c0.3,3.5,0.2,7.1-0.6,10.6
		c-0.4,1.5-0.9,3-1.7,4.3c-1,1.6-1.4,1.8-2.8,0.3c-1.4-1.5-2.2-3.4-2.7-5.4c-0.8-3.1-0.7-6.2-0.3-9.3
		C238.4,189.1,238.6,187.8,238.8,186.5z"/>
	<path class="st24" d="M315.3,187c0-1.3-0.1-2.6-0.1-3.8c0-2.2,0.3-4.3,0.9-6.4c0.3-1.1,0.8-2.1,1.6-3c0.4-0.5,1-0.7,1.6-0.5
		c0.8,0.3,1.5,0.7,2,1.3c2.1,2.6,2.7,6,0,9.1C319.9,185.2,317.7,186.5,315.3,187z"/>
	<path class="st24" d="M245.5,185c-0.9,0.2-1.8,0.1-2.6-0.3c-1.1-0.4-2.1-1-3.1-1.5c-0.2-0.1-0.3-0.2-0.4-0.4
		c-0.3-0.6-0.8-1-1.4-1.2c-0.2-0.1-0.4-0.2-0.5-0.3c-1.3-1.3-2.5-2.7-3-4.4c-0.2-0.7-0.3-1.4-0.3-2.1c0.1-1.5,1.2-2.2,2.7-1.8
		c0.8,0.2,1.5,0.6,2.1,1c1.8,1.2,3.2,2.8,4.2,4.7c1,1.9,1.8,3.8,2.3,5.9C245.5,184.7,245.5,184.8,245.5,185z"/>
	<path class="st24" d="M165.5,181.6c0.4-3.6,1-7.1,2.7-10.4c0.5-0.9,1.1-1.7,1.7-2.4c0.4-0.4,0.8-0.8,1.3-1.1c1.2-0.8,2.1-0.5,3,0.6
		c0.6,0.9,0.8,1.8,0.5,2.8c-0.2,0.8-0.5,1.7-0.9,2.4c-1.9,3.4-4.6,6.1-7.9,8.1C165.8,181.6,165.7,181.6,165.5,181.6z"/>
	<path class="st24" d="M254,175.3c-1.9-0.5-3.7-2.6-3.8-4.5c0-0.1,0-0.2,0-0.4c0-0.6,0.2-1.2,0.7-1.5c0.6-0.3,1.1,0.2,1.5,0.5
		c0.7,0.6,1.2,1.4,1.5,2.4C254.2,173,254.2,174.2,254,175.3z"/>
	<path class="st24" d="M147.6,145.9c0,3.4,0,6.8-0.4,10.1c-0.4,2.9-0.8,5.9-1.5,8.7c-0.4,1.6-1.1,3.1-2.2,4.4
		c-1.3,1.6-2.6,1.8-4.3,0.5c-1-0.7-1.7-1.6-2.4-2.6c-1.2-1.8-2.1-3.7-2.8-5.7c-1.7-4.8-2.8-9.7-3.6-14.8c-0.8-5.1-1.4-10.3-1.5-15.5
		c-0.1-5.4,0.4-10.8,1.7-16.1c0.3-1.2,0.8-2.5,1.3-3.6c0.3-0.7,0.8-1.2,1.3-1.8c0.5-0.6,1.2-0.7,2-0.4c2.2,0.8,3.9,2.3,5.3,4.2
		c1.9,2.7,3,5.8,4,9c1.2,3.9,1.9,8,2.4,12C147.4,138.2,147.6,142.1,147.6,145.9z"/>
	<path class="st24" d="M96.2,158.1c-2-16.7-3.5-33.4-5.8-50c0.5,0.2,1,0.3,1.5,0.4c4.2,1.5,7.5,4.2,9.9,8c2,3.2,3.2,6.7,4,10.4
		c0.9,4.1,1.6,8.2,1.8,12.4c0.2,2.9,0,5.9-0.7,8.7c-1.1,4.4-3.9,7.5-8.2,9.2C97.9,157.6,97.1,157.8,96.2,158.1z"/>
	<path class="st24" d="M237.3,229.4c1.6,0.2,2.7,1.1,3.6,2.2c1.1,1.3,1.8,2.9,2.4,4.4c1.3,3.3,2,6.8,2.4,10.3
		c0.3,2.4,0.5,4.8,0.7,7.2c0.3,4.2,0.1,8.4-1,12.5c-0.4,1.4-0.9,2.8-1.7,4c-1,1.5-1.4,1.7-3,0.4c-0.9-0.7-1.6-1.7-2.1-2.8
		c-1.2-2.7-2-5.5-2.7-8.3c-1.3-5.3-1.7-10.7-1.5-16.1c0.2-3.9,0.6-7.7,1.8-11.4c0.2-0.6,0.4-1.2,0.7-1.7
		C237,229.8,237.2,229.6,237.3,229.4z"/>
	<path class="st24" d="M263.3,253.8c-0.1-1.5-0.2-3-0.3-4.4c-0.3-5.1-0.5-10.2-0.8-15.3c0-0.8,0.2-1.3,0.8-1.8
		c0.8-0.6,1.5-1.2,2.4-1.6c1.7-0.7,3.1-0.4,4.3,1c2,2.3,3,5,3.3,8c0.3,3.4-0.4,6.6-2,9.6C269.4,252.2,266.8,253.7,263.3,253.8z"/>
	<path class="st24" d="M199.4,248.7c-0.2,4.6-1.9,8.5-5.7,11.2c-1,0.7-2.1,1.3-3.3,1.5c-0.4,0.1-1,0.1-1.3-0.1
		c-0.9-0.5-1.7-1-2.6-1.6c-0.2-0.1-0.2-0.4-0.2-0.6c-0.1-3.1-0.1-6.2-0.2-9.2c0-0.3,0.1-0.6,0.2-0.9c0.9-2.4,2.1-4.7,3.7-6.7
		c0.7-1,1.6-1.8,2.6-2.4c1.4-0.9,2.5-0.8,3.8,0.4c1,1,1.8,2.1,2.2,3.5C199.1,245.3,199.4,247,199.4,248.7z"/>
	<path class="st24" d="M248.7,111.1c0.2-1,0.3-1.9,0.5-2.6c0.4-1.3,0.8-2.6,1.3-3.8c0.2-0.6,0.6-1.1,1.1-1.5
		c0.7-0.7,1.3-0.6,1.9,0.1c0.8,0.8,1.1,1.9,0.8,3c-0.2,0.6-0.4,1.3-0.8,1.8C252.4,109.6,250.8,110.5,248.7,111.1z"/>
	<path class="st24" d="M226.6,114.3c0.9-3.3,1.1-6.7,2.9-9.7c0.5,0.4,0.7,0.9,0.8,1.4c0.7,2.1,1.4,4.3,2.1,6.4
		c0.2,0.5,0.3,1,0.4,1.6C230.8,114.1,228.8,114.2,226.6,114.3z"/>
</g>
</svg>
