<?xml version="1.0"?>
<svg xmlns:rdf="http://www.w3.org/1999/02/22-rdf-syntax-ns#" xmlns="http://www.w3.org/2000/svg" xmlns:cc="http://creativecommons.org/ns#" xmlns:dc="http://purl.org/dc/elements/1.1/" xmlns:svg="http://www.w3.org/2000/svg" id="svg2" viewBox="0 0 337.65 289.87" version="1.1">
  <title id="title3797">Rock Art Ancient Astronauts</title>
  <path id="path2987" d="m88.175 0.0002487c-5.429-0.02408-11.02 1.7013-15.469 4.8438-2.7545 1.9455-5.5091 5.5936-6.625 7.6563-3.3873-1.2491-5.7545-2.5414-9.5-4-2.6273-1.0231-5.4063 4.3492-2 5 4.0783 0.7792 5.751 1.3141 10 2.5-0.75219 1.7027-0.70785 1.8831-1.0625 4-4.744-0.54739-6.2848-0.70615-11.438-1.0312-1.5154-0.0956-2.3402 4.4816-0.5 4.5312 4.6419 0.12526 7.0502 0.17678 12 0 0.0589 1.7383-0.0511 1.887 0 4-3.7732 0.5323-6.2272 0.4128-11 0.5-2.3925 0.0437-3.2231 3.7148 0.25 3.7812 4.0345 0.0771 8.3884 0.001 10.844-0.1875 0.18928 2.3079 0.0991 2.2461 0.375 4.5938-4.5606-0.13988-6.8238 0.14399-10.969-0.1875-2.1292-0.17029-1.9421 3.1414 0.1875 3.2188 4.1771 0.15152 4.5202 0.36903 10.969 0.6875 0.0648 1.7976 0.2123 1.7236 0.34375 3.1875-1.5875-0.52465-4.4845-0.9661-6.7188-0.6875-2.368 0.29528-4.6612 1.2601-6.7188 2.4688-12.26 7.202-9.2218 13.721-16.281 17.312-1.6937 0.86174-3.94 1.5345-5.6562 0.71875-3.4027-1.6174-8.2836-9.4408-14.469-18.75 3.2866-8.0631 13.449-24.775 18.719-27.219 3.4162-1.5844 8.8289-9.242-2.125-11.313-13.28-2.5102-9.8834 3.6968-12.719 7.7813-7.1601 10.314-8.9197 14.225-15.906 25.812-2.4409 4.0484-5.0602 6.2521 1.0625 14.125 7.271 9.3494 15.201 19.089 24.031 26.156 2.9242 2.3403 8.7751 0.56701 10.969-2.4688 2.4198-3.3488 6.3474-7.6007 9.1875-11.656 4.694-6.703 9.4684-4.2047 11.125-0.875 3.0279 6.0861 4.7493 25.239 4 32-1.0269 9.2665-8.8732 16.687-10.781 25.813-5.6382 26.966 7.425 56.509-1.3438 82.625-3.4795 10.363-10.327 19.558-19.375 26.469-15.852 12.107-11.102 17.769-7.5 22.594 4.4138 5.912 3.863 14.321 7 21 3.1793 6.7687 11.839 2.788 10.281-5.125-1.5533-7.8924-3.9143-13.904-1.9375-20.469 4.9922-16.577 26.74-24.125 32.625-40.406 4.2498-11.757-1.5527-23.831 0.53125-37.5 4.5431-0.93783 3.6447-0.49305 8.5-2 5.4606 7.4957 4.1315 20.946 3.5938 31.5-0.54648 10.725-5.5687 20.698-6.875 31.469-3.3712 27.797-11.156 24.867-3.0312 33.906 3.7697 4.194 6.7255 7.5544 11.812 10.625 2.5525 1.5407 10.269 2.7581 4-8-2.3691-4.0652-5.7344-8.3006-5.5-13 0.54474-10.922 16.732-37.396 18.656-57.438 1.7353-18.069-6.4076-35.912-6.6562-54.062-0.19268-14.062 0.91715-28.279 4-42 1.826-8.1274 1.8734-18.452 8.5-23.5 2.6921-2.0506 7.4549-2.8604 10.125-0.78125 6.7668 5.2692 5.0685 9.8606 21.719 19.625 6.4655 3.7916 13.159 7.1359 20.656 8.9063 0.18892 2.9445 0.54678 2.3359 0.75 5 0.41355 5.4215 4.5226 4.6872 4.5 0.25-0.14763-28.982-0.734-38.782-0.75-63-0.005-7.868-3.5486-5.6411-7.5-1-7.1778 8.4306-10.308 20.978-20.25 25-2.8661 1.1594-6.4853 0.31971-9.2188-1.125-7.3974-3.9098-12.906-11.576-16.969-18.094 0.28305-1.3949 0.65295-2.3955 0.9375-4.2812 2.3267 1.2436 4.1099 3.0287 6.5 4.5 2.2494 1.3847 4.3798-3.4708 2-4.5-2.7873-1.2055-5.2424-2.0483-7.8125-3.2812 0.14-1.5424 0.40421-2.5712 0.53125-3.9375 3.0855 1.0694 4.1348 1.561 7.9688 3.25 1.8555 0.81742 2.7618-4.4734 0.8125-5.0312-2.858-0.81791-4.4477-1.3183-8.5-1.9062 0.13123-1.8066 0.2235-2.4862 0.5-3.7188 3.3296 0.10494 4.2938 0.21074 7.9062 0.375 3.3382 0.15178 2.434-4.3001 0.59375-4.25-3.0353 0.0826-5.3743 0.14902-8.5 0.5-0.0533-1.5075-0.17565-2.9167-0.4375-4.5625 2.6249-0.35634 5.2094-0.57237 8.5312-0.84375 4.0022-0.32698 2.4039-4.7868 0.40625-4.5938-3.4158 0.33011-5.5562 0.52065-9.6562 1.3125-0.2752-1.077-0.25632-1.9362-0.84375-3.8125 3.093-2.8728 5.7238-4.9394 9-8 1.7504-1.6353-1.1947-4.4885-3-3-2.9655 2.445-5.1792 4.0173-8 7-2.48-5.4465-10.57-12.581-18.062-14.379-1.72-0.41286-3.534-0.61672-5.343-0.62475zm0.968 6.625c1.174 0.02848 2.3282 0.16332 3.4375 0.375 6.6802 1.2747 13.414 5.9398 16.5 12 3.1764 6.2378 1.7643 14.226 0 21-1.6362 6.2819-5.1169 12.339-9.5 17-3.5438-1.0171-6.4184-1.4496-9.5-2.5 1.0789-4.3713-0.11227-7.768 2.5-10 1.6987-1.4514 5.0334-3.8559 7.041-4.8364 2.8036-6.5368 1.9768-11.229-2.041-17.664-1.5093-2.708-4.402-5.6176-7.5-5.5-4.6065 0.17485-8.8755 4.686-10.5 9-1.2459 3.3087-0.17334 7.3855 1.5 10.5 0.94987 1.7679 4.7748 2.012 4.5 4-0.39315 2.8437-6.6235 11.88-11 16.5-7.5523-1.4107-6.2457-15.455-6.0625-23.562 0.16883-7.4717 1.1596-16.274 6.5625-21.438 3.5378-3.3812 8.975-4.9984 14.062-4.875zm69.438 54.375c-0.31987 6.6008-0.2963 5.4031-0.75 10.75-0.16509 1.9456-2.8071 6.4445-4.75 6.25-5.8574-0.58633-2.0231-5.9337-1.25-9 0.95119-3.7728 2.9322-5.5596 6.75-8zm2 27c0.10303 3.3192 0.15464 7.2306 0.5 11.5-3.6756 0.51053-7.0113-2.0741-7.25-5-0.25395-3.1133 3.4811-6.0138 6.75-6.5z"/>
  <path id="path3787" d="m254.89 1.2815c-1.1381 0.15264-2.2364 1.5165-1.8125 2.2188 1.0246 1.6974 0.92299 2.3955 1.75 3.25-1.4846 0.92447-1.8764 1.6751-3 2.5-2.2369-1.1621-3.9165-2.5003-5.625-4.4062-1.1413-1.2732-4.1149 2.5674-2.625 3.4062 2.5473 1.4342 4.1601 2.3245 5.75 3.9688-0.79531 1.1871-1.8693 2.3427-2.6875 4.1562-1.9555-0.76713-3.3365-1.3876-4.3125-2.125-2.439-1.8428-4.4767 2.6571-2.5 3.5 2.3606 1.0066 2.7055 1.1427 5 2-0.20993 1.5906-0.4166 1.8349-0.5 3-1.9434 0.10881-2.8749-0.0551-4.75-0.25-2.1975-0.22841-2.2172 3.8194 0 4 1.8257 0.14873 2.0647 0.495 4.25 0.5-0.16399 0.98633 0.0589 2.1304 0 3.25-2.2981 0.17678-3.3054 0.17677-5.25 0-1.2449-0.11317-1.2397 3.59 0 3.75 1.8267 0.2357 3.3859 0.23166 5.5 0 0.0632 1.5955 0.14845 3.4556 0.0312 5-1.4149 0.18915-3.2008 0.20835-5.0312 0.5-1.7719 0.28233-2.1442 5.1599 0.5625 5.3438 1.6177 0.10988 3.2674 0.31645 4.8438 0.34375 0.20708 2.9238 0.1291 4.76-0.0312 6.8125-3.0737 0.16613-6.1513-0.043-8.8125 1.2812-10.08 5.0162-15.544 15.413-24.062 23.719-2.7794-6.2139-6.8973-9.4393-7.9375-15-0.84137-4.4977-1.5697-17.777-0.75-22.188 0.27216-1.4642 1.079-2.4899 1.9375-4.0312 3.7891-6.803-0.63762-8.1897-4.75-3.2812-6.8898 8.2235-14.795 19.784-28 35-3.1121 3.586-0.35603 8.359 4.25 4.0625 1.5207-1.4185 2.2363-4.0433 4.25-4.5625 2.2145-0.57099 10.574-0.97093 14.844 1.5938 4.403 2.6445 6.0972 8.2968 8.6562 12.75 3.9192 6.82 4.9098 8.7311 10.844 4.125 7.9873-6.2 15.443-21.622 25.5-18.562 8.7552 2.6631 8.6053 16.671 9.4688 25.781 1.285 13.558 3.5022 25.818 3.6875 38.813 0.10719 7.5159 0.0887 15.153-1.5 22.5-3.9237 18.145-18.361 33.601-19.594 52.125-0.93331 14.027 5.2947 27.133 9.4688 41.094 1.7334 5.7978 5.0877 8.9895-0.8125 21.938-1.1969 2.6265-3.2748 4.6338-4.9688 7.0938-2.7487 3.9918 0.56642 7.7089 2.4062 5.75 3.2945-3.5077 5.1788-5.3087 8.125-7.5312 3.2478-2.4501 9.342-2.549 10.438-6.3125 1.2891-4.4287-11.8-48.794-12.281-55.5-0.58557-8.1647 5.8205-13.668 9.625-20.031 3.9426-6.5944 8.3247-12.223 13.594-18.625 2.7386 22.112-1.4756 27.703-0.28125 34.469 1.7657 10.002 5.6509 19.546 9.2812 29.031 3.1999 8.3606 9.8599 15.621 11 24.5 1.737 13.528-1.545 17.832-4.125 21.531-5.356 7.6797 3.0892 7.0577 4.625 4.9688 2.9159-3.9663 5.5718-7.106 8.4375-10.594 2.2339-2.7189 6.5007-4.5574 6.8125-8.0625 0.25103-2.8221-3.4184-4.6353-4.25-7.3438-2.2099-7.1972 0.32044-15.25-1.5938-22.531-2.7533-10.473-12.687-18.587-13.938-29.344-2.1834-18.781 10.761-36.567 11.938-55.438 0.5167-8.2902-1.5214-16.564-2.1875-24.844-1.3905-17.285-7.8738-33.665-3.7812-51.875 0.75546-3.3614 5.3314-8.3208 8.0625-6.4688 9.7418 6.6062 17.124 17.555 21.5 32.5-0.89574 5.5868-1.493 11.456-2 16-0.4988 4.4696 4.2645 5.7064 5.125 0 1.002-6.6448 0.8353-10.879 2.4688-16.031 2.8163-8.8828 9.9438-17.881 12.438-25.031 0.41539-1.191-2.6206-2.199-3.7812-0.40625-4.0319 6.2274-6.803 12.189-10.406 18.625-3.6533-4.74-6.5489-17.096-10.844-25.156-3.2693-6.1354-6.2815-12.701-11.281-17.531-2.6949-2.6037-7.8131-6.7465-9.6562-5.75-2.5468 1.377-4.3956 3.4612-6.9375 3.25-1.4148-0.11754-2.3799-1.6438-3.5-2.4375 0.7691-2.0684 1.2225-3.3718 1.625-5.2812 2.3647 0.78368 3.0064 0.75843 4.5 1.75 1.1492 0.76293 3.0366-3.2526 1.75-3.75-1.923-0.74339-2.8703-1.2869-5-1.75 0.15698-1.2414 0.50659-2.826 0.75-4.25 2.0611-0.0494 2.8416-0.1721 4.5 0.25 1.2481 0.31766 1.4486-3.7706 0.28125-3.8438-1.4549-0.09115-2.0875-0.17845-4.5312-0.15625 0.14156-0.90389 0.79587-3.0838 0.4375-4.5625 1.5969-0.0523 2.5951-0.15935 4.0625-0.0937 1.517 0.0678 1.991-4.0393 0.25-3.8438-1.5968 0.1794-2.2859-0.0248-4.5 0.25-0.32453-1.5681-0.99707-3.0311-1.375-4.7188 2.1495-0.48543 3.9304-0.86877 5.875-1.2812 1.756-0.37249-0.33664-5.6749-2-5-1.8464 0.74914-3.0736 1.4293-5.75 2-1.407-4.1892-5.6375-10.257-10.688-12.219-4.1575-1.615-10.289-0.12639-13.312 1.4688-0.72254-1.1341-0.66359-1.3313-1.75-3-0.39464-0.60616-0.92017-0.78813-1.4375-0.71875zm10.719 7.1875c0.32153-0.0028 0.64819 0.0036 0.96875 0.03125 4.3838 0.37843 8.3321 4.171 10.5 8 2.9744 5.2533 2.1895 11.966 2 18-0.16935 5.3914-0.67965 10.435-2.7812 15.938-2.3264 0.64092-3.6618 0.73171-6.4062 0.8125-0.63359-2.3403-0.22567-6.2844 0.1875-8.75 5.2644-1.5068 5.6757-9.4322 5-14.5-0.66597-4.9945-3.6366-11.182-8.5-12.5-3.7416-1.0138-8.085 1.9676-10.5 5-2.8717 3.606-4.5038 9.1424-3 13.5 1.0887 3.1547 3.7626 5.306 7.75 6.3438 0.38503 4.2424 0.60396 6.5413 0.25 12.656-3.9938 0.73157-5.8887 0.86988-10 1.5-1.6797-5.6763-3.5216-14.617-3-22 0.41231-5.8358 1.0832-12.342 4.7812-16.875 3.0508-3.7398 7.927-7.1143 12.75-7.1563zm-67.22 35.344c0.84596 3.8952 1.7573 13.035 0.34375 14.312-0.77187 0.6978-3.3932-5.635-5.125-9.375 1.2197-1.5153 2.3089-2.8243 4.7812-4.9375zm-7.4375 8.4688c1.638 2.5875 3.4542 9.571 2.3125 10.781-1.23 1.3039-6.5264 1.1658-10.25-0.53125 2.9711-3.4022 4.2511-5.7348 7.9375-10.25z"/>
  <metadata>
    <rdf:RDF>
      <cc:Work>
        <dc:format>image/svg+xml</dc:format>
        <dc:type rdf:resource="http://purl.org/dc/dcmitype/StillImage"/>
        <cc:license rdf:resource="http://creativecommons.org/licenses/publicdomain/"/>
        <dc:publisher>
          <cc:Agent rdf:about="http://openclipart.org/">
            <dc:title>Openclipart</dc:title>
          </cc:Agent>
        </dc:publisher>
        <dc:title>Rock Art Ancient Astronauts</dc:title>
        <dc:date>2011-03-01T04:18:07</dc:date>
        <dc:description>Val Camonica, Italy "ancient astronauts" manually traced from public domain image at http://en.wikipedia.org/wiki/File:Ancientastronauts.jpg</dc:description>
        <dc:source>http://openclipart.org/detail/124393/rock-art-ancient-astronauts-by-serioustux</dc:source>
        <dc:creator>
          <cc:Agent>
            <dc:title>SeriousTux</dc:title>
          </cc:Agent>
        </dc:creator>
        <dc:subject>
          <rdf:Bag>
            <rdf:li>Italy</rdf:li>
            <rdf:li>Petroglyph</rdf:li>
            <rdf:li>Val Camonica</rdf:li>
            <rdf:li>ancient</rdf:li>
            <rdf:li>astronaut</rdf:li>
            <rdf:li>b&amp;w</rdf:li>
            <rdf:li>black and white</rdf:li>
            <rdf:li>clip art</rdf:li>
            <rdf:li>clipart</rdf:li>
            <rdf:li>human</rdf:li>
            <rdf:li>person</rdf:li>
            <rdf:li>primitive</rdf:li>
            <rdf:li>rock art</rdf:li>
            <rdf:li>tribal</rdf:li>
          </rdf:Bag>
        </dc:subject>
      </cc:Work>
      <cc:License rdf:about="http://creativecommons.org/licenses/publicdomain/">
        <cc:permits rdf:resource="http://creativecommons.org/ns#Reproduction"/>
        <cc:permits rdf:resource="http://creativecommons.org/ns#Distribution"/>
        <cc:permits rdf:resource="http://creativecommons.org/ns#DerivativeWorks"/>
      </cc:License>
    </rdf:RDF>
  </metadata>
</svg>
